<svg xmlns="http://www.w3.org/2000/svg" height="24" viewBox="0 96 960 960" width="24"><path d="M460 964q-81 0-138.5-57.5T264 768V316q0-58.575 41.712-100.287Q347.425 174 406 174q58.575 0 100.288 41.713Q548 257.425 548 316v406q0 36.96-25.528 62.48-25.528 25.52-62.5 25.52T397.5 784.48Q372 758.96 372 722V316h28v406q0 25.5 17.25 42.75T460 782q25.5 0 42.75-17.25T520 722V316q0-47.88-33.085-80.94-33.084-33.06-81-33.06Q358 202 325 235.06q-33 33.06-33 80.94v452q0 70 49 119t119 49q70 0 119-49t49-119V316h28v452q0 81-57.5 138.5T460 964Z"/></svg>