<svg xmlns="http://www.w3.org/2000/svg" height="24" viewBox="0 96 960 960" width="24"><path d="M480 664q-11 0-19.5-8.5T452 636q0-11 8.5-19.5T480 608q11 0 19.5 8.5T508 636q0 11-8.5 19.5T480 664Zm-160 0q-11 0-19.5-8.5T292 636q0-11 8.5-19.5T320 608q11 0 19.5 8.5T348 636q0 11-8.5 19.5T320 664Zm320 0q-11 0-19.5-8.5T612 636q0-11 8.5-19.5T640 608q11 0 19.5 8.5T668 636q0 11-8.5 19.5T640 664ZM480 816q-11 0-19.5-8.5T452 788q0-11 8.5-19.5T480 760q11 0 19.5 8.5T508 788q0 11-8.5 19.5T480 816Zm-160 0q-11 0-19.5-8.5T292 788q0-11 8.5-19.5T320 760q11 0 19.5 8.5T348 788q0 11-8.5 19.5T320 816Zm320 0q-11 0-19.5-8.5T612 788q0-11 8.5-19.5T640 760q11 0 19.5 8.5T668 788q0 11-8.5 19.5T640 816ZM232 924q-26 0-43-17t-17-43V368q0-26 17-43t43-17h80v-92h32v92h276v-92h28v92h80q26 0 43 17t17 43v496q0 26-17 43t-43 17H232Zm0-28h496q12 0 22-10t10-22V528H200v336q0 12 10 22t22 10Z"/></svg>