<svg xmlns="http://www.w3.org/2000/svg" height="24" viewBox="0 96 960 960" width="24"><path d="M392 830v-28h396v28H392Zm0-240v-28h396v28H392Zm0-240v-28h396v28H392ZM217 861q-18.562 0-31.781-13.219Q172 834.562 172 816q0-18.562 13.219-31.781Q198.438 771 217 771q18.562 0 31.781 13.219Q262 797.438 262 816q0 18.562-13.219 31.781Q235.562 861 217 861Zm0-240q-18.562 0-31.781-13.219Q172 594.562 172 576q0-18.562 13.219-31.781Q198.438 531 217 531q18.562 0 31.781 13.219Q262 557.438 262 576q0 18.562-13.219 31.781Q235.562 621 217 621Zm0-240q-18.562 0-31.781-13.219Q172 354.562 172 336q0-18.562 13.219-31.781Q198.438 291 217 291q18.562 0 31.781 13.219Q262 317.438 262 336q0 18.562-13.219 31.781Q235.562 381 217 381Z"/></svg>