<svg xmlns="http://www.w3.org/2000/svg" height="24" viewBox="0 96 960 960" width="24"><path d="m416 924-14-112q-21-6-46.5-20T313 762l-103 44-64-112 89-67q-2-12-3.5-25t-1.5-25q0-11 1.5-23.5T235 525l-89-67 64-110 102 43q20-17 43.5-30.5T401 340l15-112h128l14 113q26 9 45.5 20.5T644 391l106-43 64 110-93 70q4 14 4.5 25.5t.5 22.5q0 10-1 21.5t-4 28.5l91 68-64 112-104-45q-21 18-42 30.5T558 811l-14 113H416Zm62-260q37 0 62.5-25.5T566 576q0-37-25.5-62.5T478 488q-37 0-62.5 25.5T390 576q0 37 25.5 62.5T478 664Z"/></svg>