<svg xmlns="http://www.w3.org/2000/svg" height="24" viewBox="0 96 960 960" width="24"><path d="M480.235 692Q537 692 576.5 652.265q39.5-39.736 39.5-96.5Q616 499 576.265 459.5q-39.736-39.5-96.5-39.5Q423 420 383.5 459.735q-39.5 39.736-39.5 96.5Q344 613 383.735 652.5q39.736 39.5 96.5 39.5ZM480 664q-45 0-76.5-31.5T372 556q0-45 31.5-76.5T480 448q45 0 76.5 31.5T588 556q0 45-31.5 76.5T480 664Zm.143 140Q355 804 252 736.5T96 556q53-113 155.857-180.5t228-67.5Q605 308 708 375.5T864 556q-53 113-155.857 180.5t-228 67.5Z"/></svg>